<?xml version="1.0" encoding="UTF-8" standalone="no"?>
<!DOCTYPE svg PUBLIC "-//W3C//DTD SVG 1.1//EN"
 "http://www.w3.org/Graphics/SVG/1.1/DTD/svg11.dtd">
<!-- Generated by graphviz version 2.38.0 (20140413.2041)
 -->
<!-- Title: APIBitmap Pages: 1 -->
<svg width="445pt" height="84pt"
 viewBox="0.00 0.00 444.50 84.00" xmlns="http://www.w3.org/2000/svg" xmlns:xlink="http://www.w3.org/1999/xlink">
<g id="graph0" class="graph" transform="scale(1 1) rotate(0) translate(4 80)">
<title>APIBitmap</title>
<polygon fill="white" stroke="none" points="-4,4 -4,-80 440.5,-80 440.5,4 -4,4"/>
<!-- Node1 -->
<g id="node1" class="node"><title>Node1</title>
<polygon fill="#bfbfbf" stroke="black" points="192.5,-56.5 192.5,-75.5 258.5,-75.5 258.5,-56.5 192.5,-56.5"/>
<text text-anchor="middle" x="225.5" y="-63.5" font-family="Helvetica,sans-Serif" font-size="10.00">APIBitmap</text>
</g>
<!-- Node2 -->
<g id="node2" class="node"><title>Node2</title>
<g id="a_node2"><a xlink:href="class_i_graphics_canvas_1_1_bitmap.html" target="_top" xlink:title="IGraphicsCanvas::Bitmap">
<polygon fill="white" stroke="black" points="0,-0.5 0,-19.5 137,-19.5 137,-0.5 0,-0.5"/>
<text text-anchor="middle" x="68.5" y="-7.5" font-family="Helvetica,sans-Serif" font-size="10.00">IGraphicsCanvas::Bitmap</text>
</a>
</g>
</g>
<!-- Node1&#45;&gt;Node2 -->
<g id="edge1" class="edge"><title>Node1&#45;&gt;Node2</title>
<path fill="none" stroke="midnightblue" d="M191.111,-53.172C161.548,-43.0039 119.627,-28.5852 93.2607,-19.5164"/>
<polygon fill="midnightblue" stroke="midnightblue" points="190.028,-56.5007 200.623,-56.4435 192.305,-49.8813 190.028,-56.5007"/>
</g>
<!-- Node3 -->
<g id="node3" class="node"><title>Node3</title>
<g id="a_node3"><a xlink:href="class_i_graphics_nano_v_g_1_1_bitmap.html" target="_top" xlink:title="IGraphicsNanoVG::Bitmap">
<polygon fill="white" stroke="black" points="155,-0.5 155,-19.5 296,-19.5 296,-0.5 155,-0.5"/>
<text text-anchor="middle" x="225.5" y="-7.5" font-family="Helvetica,sans-Serif" font-size="10.00">IGraphicsNanoVG::Bitmap</text>
</a>
</g>
</g>
<!-- Node1&#45;&gt;Node3 -->
<g id="edge2" class="edge"><title>Node1&#45;&gt;Node3</title>
<path fill="none" stroke="midnightblue" d="M225.5,-45.8045C225.5,-36.9102 225.5,-26.7798 225.5,-19.7511"/>
<polygon fill="midnightblue" stroke="midnightblue" points="222,-46.083 225.5,-56.083 229,-46.083 222,-46.083"/>
</g>
<!-- Node4 -->
<g id="node4" class="node"><title>Node4</title>
<g id="a_node4"><a xlink:href="class_i_graphics_skia_1_1_bitmap.html" target="_top" xlink:title="IGraphicsSkia::Bitmap">
<polygon fill="white" stroke="black" points="314.5,-0.5 314.5,-19.5 436.5,-19.5 436.5,-0.5 314.5,-0.5"/>
<text text-anchor="middle" x="375.5" y="-7.5" font-family="Helvetica,sans-Serif" font-size="10.00">IGraphicsSkia::Bitmap</text>
</a>
</g>
</g>
<!-- Node1&#45;&gt;Node4 -->
<g id="edge3" class="edge"><title>Node1&#45;&gt;Node4</title>
<path fill="none" stroke="midnightblue" d="M258.725,-53.0392C286.948,-42.8786 326.762,-28.5457 351.843,-19.5164"/>
<polygon fill="midnightblue" stroke="midnightblue" points="257.491,-49.7632 249.268,-56.4435 259.862,-56.3494 257.491,-49.7632"/>
</g>
</g>
</svg>
