<?xml version="1.0" encoding="UTF-8" standalone="no"?>
<!DOCTYPE svg PUBLIC "-//W3C//DTD SVG 1.1//EN"
 "http://www.w3.org/Graphics/SVG/1.1/DTD/svg11.dtd">
<!-- Generated by graphviz version 2.38.0 (20140413.2041)
 -->
<!-- Title: IGraphics Pages: 1 -->
<svg width="323pt" height="84pt"
 viewBox="0.00 0.00 322.50 84.00" xmlns="http://www.w3.org/2000/svg" xmlns:xlink="http://www.w3.org/1999/xlink">
<g id="graph0" class="graph" transform="scale(1 1) rotate(0) translate(4 80)">
<title>IGraphics</title>
<polygon fill="white" stroke="none" points="-4,4 -4,-80 318.5,-80 318.5,4 -4,4"/>
<!-- Node1 -->
<g id="node1" class="node"><title>Node1</title>
<polygon fill="#bfbfbf" stroke="black" points="134.5,-56.5 134.5,-75.5 195.5,-75.5 195.5,-56.5 134.5,-56.5"/>
<text text-anchor="middle" x="165" y="-63.5" font-family="Helvetica,sans-Serif" font-size="10.00">IGraphics</text>
</g>
<!-- Node2 -->
<g id="node2" class="node"><title>Node2</title>
<g id="a_node2"><a xlink:href="class_i_graphics_canvas.html" target="_top" xlink:title="IGraphics draw class HTML5 canvas. ">
<polygon fill="white" stroke="black" points="0,-0.5 0,-19.5 96,-19.5 96,-0.5 0,-0.5"/>
<text text-anchor="middle" x="48" y="-7.5" font-family="Helvetica,sans-Serif" font-size="10.00">IGraphicsCanvas</text>
</a>
</g>
</g>
<!-- Node1&#45;&gt;Node2 -->
<g id="edge1" class="edge"><title>Node1&#45;&gt;Node2</title>
<path fill="none" stroke="midnightblue" d="M137.336,-52.2321C115.451,-42.1312 85.5032,-28.3091 66.4523,-19.5164"/>
<polygon fill="midnightblue" stroke="midnightblue" points="135.915,-55.4308 146.461,-56.4435 138.848,-49.075 135.915,-55.4308"/>
</g>
<!-- Node3 -->
<g id="node3" class="node"><title>Node3</title>
<g id="a_node3"><a xlink:href="class_i_graphics_nano_v_g.html" target="_top" xlink:title="IGraphics draw class using NanoVG. ">
<polygon fill="white" stroke="black" points="114.5,-0.5 114.5,-19.5 215.5,-19.5 215.5,-0.5 114.5,-0.5"/>
<text text-anchor="middle" x="165" y="-7.5" font-family="Helvetica,sans-Serif" font-size="10.00">IGraphicsNanoVG</text>
</a>
</g>
</g>
<!-- Node1&#45;&gt;Node3 -->
<g id="edge2" class="edge"><title>Node1&#45;&gt;Node3</title>
<path fill="none" stroke="midnightblue" d="M165,-45.8045C165,-36.9102 165,-26.7798 165,-19.7511"/>
<polygon fill="midnightblue" stroke="midnightblue" points="161.5,-46.083 165,-56.083 168.5,-46.083 161.5,-46.083"/>
</g>
<!-- Node4 -->
<g id="node4" class="node"><title>Node4</title>
<g id="a_node4"><a xlink:href="class_i_graphics_skia.html" target="_top" xlink:title="IGraphics draw class using Skia. ">
<polygon fill="white" stroke="black" points="233.5,-0.5 233.5,-19.5 314.5,-19.5 314.5,-0.5 233.5,-0.5"/>
<text text-anchor="middle" x="274" y="-7.5" font-family="Helvetica,sans-Serif" font-size="10.00">IGraphicsSkia</text>
</a>
</g>
</g>
<!-- Node1&#45;&gt;Node4 -->
<g id="edge3" class="edge"><title>Node1&#45;&gt;Node4</title>
<path fill="none" stroke="midnightblue" d="M191.519,-51.8622C211.73,-41.8492 238.987,-28.3458 256.531,-19.6545"/>
<polygon fill="midnightblue" stroke="midnightblue" points="189.92,-48.7485 182.513,-56.324 193.027,-55.0209 189.92,-48.7485"/>
</g>
</g>
</svg>
