<?xml version="1.0" encoding="UTF-8" standalone="no"?>
<!DOCTYPE svg PUBLIC "-//W3C//DTD SVG 1.1//EN"
 "http://www.w3.org/Graphics/SVG/1.1/DTD/svg11.dtd">
<!-- Generated by graphviz version 2.38.0 (20140413.2041)
 -->
<!-- Title: Graphical Class Hierarchy Pages: 1 -->
<svg width="251pt" height="104pt"
 viewBox="0.00 0.00 251.00 104.00" xmlns="http://www.w3.org/2000/svg" xmlns:xlink="http://www.w3.org/1999/xlink">
<g id="graph0" class="graph" transform="scale(1 1) rotate(0) translate(4 100)">
<title>Graphical Class Hierarchy</title>
<polygon fill="white" stroke="none" points="-4,4 -4,-100 247,-100 247,4 -4,4"/>
<!-- Node1 -->
<g id="node1" class="node"><title>Node1</title>
<g id="a_node1"><a xlink:href="class_a_p_i_bitmap.html" target="_top" xlink:title="A base class interface for a bitmap abstraction around the different drawing back end bitmap represen...">
<polygon fill="white" stroke="black" points="0,-38.5 0,-57.5 66,-57.5 66,-38.5 0,-38.5"/>
<text text-anchor="middle" x="33" y="-45.5" font-family="Helvetica,sans-Serif" font-size="10.00">APIBitmap</text>
</a>
</g>
</g>
<!-- Node2 -->
<g id="node2" class="node"><title>Node2</title>
<g id="a_node2"><a xlink:href="class_i_graphics_canvas_1_1_bitmap.html" target="_top" xlink:title="IGraphicsCanvas::Bitmap">
<polygon fill="white" stroke="black" points="104,-76.5 104,-95.5 241,-95.5 241,-76.5 104,-76.5"/>
<text text-anchor="middle" x="172.5" y="-83.5" font-family="Helvetica,sans-Serif" font-size="10.00">IGraphicsCanvas::Bitmap</text>
</a>
</g>
</g>
<!-- Node1&#45;&gt;Node2 -->
<g id="edge1" class="edge"><title>Node1&#45;&gt;Node2</title>
<path fill="none" stroke="midnightblue" d="M76.0109,-59.778C84.606,-62.1766 93.5931,-64.6764 102,-67 113.213,-70.0991 125.451,-73.454 136.49,-76.4699"/>
<polygon fill="midnightblue" stroke="midnightblue" points="76.7322,-56.3456 66.1592,-57.0255 74.8485,-63.0874 76.7322,-56.3456"/>
</g>
<!-- Node3 -->
<g id="node3" class="node"><title>Node3</title>
<g id="a_node3"><a xlink:href="class_i_graphics_nano_v_g_1_1_bitmap.html" target="_top" xlink:title="IGraphicsNanoVG::Bitmap">
<polygon fill="white" stroke="black" points="102,-38.5 102,-57.5 243,-57.5 243,-38.5 102,-38.5"/>
<text text-anchor="middle" x="172.5" y="-45.5" font-family="Helvetica,sans-Serif" font-size="10.00">IGraphicsNanoVG::Bitmap</text>
</a>
</g>
</g>
<!-- Node1&#45;&gt;Node3 -->
<g id="edge2" class="edge"><title>Node1&#45;&gt;Node3</title>
<path fill="none" stroke="midnightblue" d="M76.451,-48C84.5034,-48 93.1226,-48 101.763,-48"/>
<polygon fill="midnightblue" stroke="midnightblue" points="76.2377,-44.5001 66.2376,-48 76.2376,-51.5001 76.2377,-44.5001"/>
</g>
<!-- Node4 -->
<g id="node4" class="node"><title>Node4</title>
<g id="a_node4"><a xlink:href="class_i_graphics_skia_1_1_bitmap.html" target="_top" xlink:title="IGraphicsSkia::Bitmap">
<polygon fill="white" stroke="black" points="111.5,-0.5 111.5,-19.5 233.5,-19.5 233.5,-0.5 111.5,-0.5"/>
<text text-anchor="middle" x="172.5" y="-7.5" font-family="Helvetica,sans-Serif" font-size="10.00">IGraphicsSkia::Bitmap</text>
</a>
</g>
</g>
<!-- Node1&#45;&gt;Node4 -->
<g id="edge3" class="edge"><title>Node1&#45;&gt;Node4</title>
<path fill="none" stroke="midnightblue" d="M76.0109,-36.222C84.606,-33.8234 93.5931,-31.3236 102,-29 113.213,-25.9009 125.451,-22.546 136.49,-19.5301"/>
<polygon fill="midnightblue" stroke="midnightblue" points="74.8485,-32.9126 66.1592,-38.9745 76.7322,-39.6544 74.8485,-32.9126"/>
</g>
</g>
</svg>
