<?xml version="1.0" encoding="UTF-8" standalone="no"?>
<!DOCTYPE svg PUBLIC "-//W3C//DTD SVG 1.1//EN"
 "http://www.w3.org/Graphics/SVG/1.1/DTD/svg11.dtd">
<!-- Generated by graphviz version 2.38.0 (20140413.2041)
 -->
<!-- Title: Graphical Class Hierarchy Pages: 1 -->
<svg width="411pt" height="66pt"
 viewBox="0.00 0.00 411.00 66.00" xmlns="http://www.w3.org/2000/svg" xmlns:xlink="http://www.w3.org/1999/xlink">
<g id="graph0" class="graph" transform="scale(1 1) rotate(0) translate(4 62)">
<title>Graphical Class Hierarchy</title>
<polygon fill="white" stroke="none" points="-4,4 -4,-62 407,-62 407,4 -4,4"/>
<!-- Node1 -->
<g id="node1" class="node"><title>Node1</title>
<polygon fill="white" stroke="#bfbfbf" points="0,-19.5 0,-38.5 78,-38.5 78,-19.5 0,-19.5"/>
<text text-anchor="middle" x="39" y="-26.5" font-family="Helvetica,sans-Serif" font-size="10.00">PlatformFont</text>
</g>
<!-- Node2 -->
<g id="node2" class="node"><title>Node2</title>
<polygon fill="white" stroke="#bfbfbf" points="114,-19.5 114,-38.5 221,-38.5 221,-19.5 114,-19.5"/>
<text text-anchor="middle" x="167.5" y="-26.5" font-family="Helvetica,sans-Serif" font-size="10.00">IGraphicsWeb::Font</text>
</g>
<!-- Node1&#45;&gt;Node2 -->
<g id="edge1" class="edge"><title>Node1&#45;&gt;Node2</title>
<path fill="none" stroke="midnightblue" d="M88.5539,-29C96.8378,-29 105.478,-29 113.862,-29"/>
<polygon fill="midnightblue" stroke="midnightblue" points="88.2975,-25.5001 78.2975,-29 88.2974,-32.5001 88.2975,-25.5001"/>
</g>
<!-- Node3 -->
<g id="node3" class="node"><title>Node3</title>
<g id="a_node3"><a xlink:href="class_i_graphics_web_1_1_file_font.html" target="_top" xlink:title="IGraphicsWeb::FileFont">
<polygon fill="white" stroke="black" points="269,-38.5 269,-57.5 391,-57.5 391,-38.5 269,-38.5"/>
<text text-anchor="middle" x="330" y="-45.5" font-family="Helvetica,sans-Serif" font-size="10.00">IGraphicsWeb::FileFont</text>
</a>
</g>
</g>
<!-- Node2&#45;&gt;Node3 -->
<g id="edge2" class="edge"><title>Node2&#45;&gt;Node3</title>
<path fill="none" stroke="midnightblue" d="M231.265,-36.4301C243.616,-37.8922 256.547,-39.423 268.811,-40.8748"/>
<polygon fill="midnightblue" stroke="midnightblue" points="231.396,-32.9213 221.054,-35.2213 230.573,-39.8727 231.396,-32.9213"/>
</g>
<!-- Node4 -->
<g id="node4" class="node"><title>Node4</title>
<g id="a_node4"><a xlink:href="class_i_graphics_web_1_1_memory_font.html" target="_top" xlink:title="IGraphicsWeb::MemoryFont">
<polygon fill="white" stroke="black" points="257,-0.5 257,-19.5 403,-19.5 403,-0.5 257,-0.5"/>
<text text-anchor="middle" x="330" y="-7.5" font-family="Helvetica,sans-Serif" font-size="10.00">IGraphicsWeb::MemoryFont</text>
</a>
</g>
</g>
<!-- Node2&#45;&gt;Node4 -->
<g id="edge3" class="edge"><title>Node2&#45;&gt;Node4</title>
<path fill="none" stroke="midnightblue" d="M231.151,-21.5833C239.562,-20.5877 248.243,-19.56 256.801,-18.5469"/>
<polygon fill="midnightblue" stroke="midnightblue" points="230.573,-18.1273 221.054,-22.7787 231.396,-25.0787 230.573,-18.1273"/>
</g>
</g>
</svg>
